# xmcd
#
# Track frame offsets:
#	182
#	19705
#	38402
#	51822
#	68695
#	86727
#	104342
#	120400
#	133107
#	152610
#
# Disc length: 2292 seconds
#
# Revision: 3
# Processed by: cddbd v1.5.2PL0 Copyright (c) Steve Scherf et al.
# Submitted via: EasyCDDAExtractor 15.3.0.1
#
DISCID=7508f20a
DTITLE=Alvaro Torres - Amor Del Alma
DYEAR=1993
DGENRE=Latin
TTITLE0=Tu Mejor Amigo
TTITLE1=Insaciable
TTITLE2=Una Probadita
TTITLE3=Angel Caido
TTITLE4=Te Llevo Dentro
TTITLE5=Que Lastima
TTITLE6=Cuatro
TTITLE7=Corazones Al Desnudo
TTITLE8=Contigo Si
TTITLE9=Amor Del Alma
EXTD=
EXTT0=
EXTT1=
EXTT2=
EXTT3=
EXTT4=
EXTT5=
EXTT6=
EXTT7=
EXTT8=
EXTT9=
PLAYORDER=
